<svg 
    xmlns="http://www.w3.org/2000/svg"
    xmlns:xlink="http://www.w3.org/1999/xlink"
    width="944px" height="241px"
>
    <path
        fill-rule="evenodd"  
        fill="rgb(255, 255, 255)"
        d="M942.35,73.790 L875.678,232.930 C874.678,235.314 873.139,237.257 871.62,238.758 C868.985,240.258 866.715,241.8 864.253,241.8 C860.791,241.8 857.924,239.854 855.656,237.546 C853.386,235.238 852.252,232.353 852.252,228.891 C852.252,227.44 852.636,225.274 853.406,223.582 L874.293,173.613 L832.749,73.790 C831.979,72.21 831.595,70.212 831.595,68.366 C831.595,66.750 831.901,65.212 832.518,63.750 C833.133,62.289 833.978,61.0 835.57,59.884 C836.133,58.770 837.402,57.904 838.865,57.287 C840.325,56.672 841.903,56.364 843.596,56.364 C845.980,56.364 848.212,57.38 850.290,58.384 C852.367,59.731 853.943,61.712 855.21,64.327 L887.449,141.762 L919.877,64.96 C920.801,61.788 922.128,59.924 923.859,58.499 C925.590,57.76 928.31,56.364 931.187,56.364 C932.878,56.364 934.456,56.672 935.918,57.287 C937.379,57.904 938.648,58.770 939.727,59.884 C940.803,61.0 941.669,62.289 942.323,63.750 C942.976,65.212 943.304,66.750 943.304,68.366 C943.304,70.59 942.880,71.868 942.35,73.790 ZM804.821,185.615 L787.165,185.615 C783.856,185.615 781.48,184.443 778.740,182.95 C776.432,179.749 775.278,176.922 775.278,173.613 L775.278,13.88 C775.278,9.704 776.412,6.838 778.683,4.491 C780.951,2.145 783.818,0.971 787.280,0.971 C790.742,0.971 793.607,2.145 795.877,4.491 C798.146,6.838 799.282,9.704 799.282,13.88 L799.282,161.496 L804.821,161.496 C808.128,161.496 810.955,162.670 813.303,165.16 C815.649,167.363 816.823,170.228 816.823,173.613 C816.823,176.922 815.649,179.749 813.303,182.95 C810.955,184.443 808.128,185.615 804.821,185.615 ZM749.428,185.615 L731.771,185.615 C728.463,185.615 725.655,184.443 723.347,182.95 C721.39,179.749 719.885,176.922 719.885,173.613 L719.885,13.88 C719.885,9.704 721.19,6.838 723.289,4.491 C725.558,2.145 728.425,0.971 731.887,0.971 C735.349,0.971 738.214,2.145 740.484,4.491 C742.753,6.838 743.889,9.704 743.889,13.88 L743.889,161.496 L749.428,161.496 C752.735,161.496 755.562,162.670 757.910,165.16 C760.256,167.363 761.430,170.228 761.430,173.613 C761.430,176.922 760.256,179.749 757.910,182.95 C755.562,184.443 752.735,185.615 749.428,185.615 ZM690.573,185.615 C687.186,185.615 684.321,184.443 681.975,182.95 C679.627,179.749 678.455,176.922 678.455,173.613 L678.455,171.305 C672.685,175.921 666.414,179.461 659.645,181.922 C652.874,184.385 645.641,185.615 637.949,185.615 C620.100,185.615 604.866,179.307 592.250,166.689 C579.631,154.72 573.324,138.839 573.324,120.989 C573.324,103.142 579.631,87.909 592.250,75.290 C604.866,62.673 620.100,56.364 637.949,56.364 C655.644,56.364 670.877,62.673 683.649,75.290 C696.265,87.909 702.575,103.142 702.575,120.989 L702.575,173.613 C702.575,176.922 701.401,179.749 699.55,182.95 C696.707,184.443 693.880,185.615 690.573,185.615 ZM675.282,105.352 C673.165,100.468 670.280,96.178 666.627,92.485 C662.972,88.792 658.682,85.869 653.759,83.714 C648.835,81.561 643.564,80.483 637.949,80.483 C632.255,80.483 626.946,81.561 622.24,83.714 C617.99,85.869 612.829,88.774 609.214,92.427 C605.597,96.82 602.732,100.372 600.616,105.295 C598.500,110.219 597.443,115.450 597.443,120.989 C597.443,126.529 598.500,131.762 600.616,136.684 C602.732,141.609 605.597,145.898 609.214,149.552 C612.829,153.207 617.99,156.111 622.24,158.264 C626.946,160.419 632.255,161.496 637.949,161.496 C643.564,161.496 648.835,160.419 653.759,158.264 C658.682,156.111 662.972,153.187 666.627,149.494 C670.280,145.801 673.165,141.513 675.282,136.627 C677.397,131.742 678.455,126.529 678.455,120.989 C678.455,115.450 677.397,110.239 675.282,105.352 ZM542.742,132.991 L451.343,132.991 C452.651,137.223 454.575,141.89 457.113,144.589 C459.652,148.91 462.633,151.92 466.57,153.591 C469.480,156.92 473.250,158.34 477.367,159.419 C481.481,160.803 485.771,161.496 490.234,161.496 C495.312,161.496 499.966,160.728 504.198,159.188 C508.428,157.650 512.352,155.342 515.969,152.264 C518.277,150.341 520.931,149.341 523.932,149.263 C527.394,149.263 530.259,150.399 532.529,152.667 C534.797,154.938 535.933,157.803 535.933,161.265 C535.933,164.651 534.779,167.536 532.471,169.920 C520.545,180.384 506.466,185.615 490.234,185.615 C472.384,185.615 457.151,179.307 444.535,166.689 C431.916,154.72 425.609,138.839 425.609,120.989 C425.609,103.142 431.916,87.909 444.535,75.290 C457.151,62.673 472.384,56.364 490.234,56.364 C507.928,56.364 523.162,62.673 535.933,75.290 C542.241,81.522 546.972,88.466 550.128,96.120 C553.282,103.776 554.859,112.66 554.859,120.989 C554.859,124.452 553.686,127.319 551.340,129.587 C548.992,131.857 546.127,132.991 542.742,132.991 ZM523.297,97.390 C520.718,93.890 517.718,90.889 514.295,88.388 C510.871,85.889 507.101,83.945 502.986,82.560 C498.869,81.176 494.619,80.483 490.234,80.483 C485.849,80.483 481.579,81.176 477.424,82.560 C473.270,83.945 469.462,85.889 465.999,88.388 C462.537,90.889 459.537,93.890 456.998,97.390 C454.459,100.891 452.573,104.757 451.343,108.988 L529.125,108.988 C527.815,104.757 525.874,100.891 523.297,97.390 ZM342.519,185.615 C324.669,185.615 309.436,179.307 296.819,166.689 C284.201,154.72 277.894,138.839 277.894,120.989 C277.894,103.142 284.201,87.909 296.819,75.290 C309.436,62.673 324.669,56.364 342.519,56.364 C357.828,56.364 371.330,61.96 383.25,70.559 L383.25,12.973 C383.25,9.511 384.159,6.645 386.430,4.375 C388.698,2.107 391.565,0.971 395.27,0.971 C398.412,0.971 401.277,2.107 403.625,4.375 C405.970,6.645 407.144,9.511 407.144,12.973 L407.144,120.989 C407.144,138.992 400.835,154.225 388.218,166.689 C375.446,179.307 360.213,185.615 342.519,185.615 ZM379.852,105.352 C377.735,100.468 374.850,96.178 371.196,92.485 C367.541,88.792 363.252,85.869 358.329,83.714 C353.405,81.561 348.134,80.483 342.519,80.483 C336.824,80.483 331.516,81.561 326.593,83.714 C321.669,85.869 317.399,88.774 313.784,92.427 C310.167,96.82 307.301,100.372 305.186,105.295 C303.69,110.219 302.13,115.450 302.13,120.989 C302.13,126.529 303.69,131.762 305.186,136.684 C307.301,141.609 310.167,145.898 313.784,149.552 C317.399,153.207 321.669,156.111 326.593,158.264 C331.516,160.419 336.824,161.496 342.519,161.496 C348.134,161.496 353.405,160.419 358.329,158.264 C363.252,156.111 367.541,153.187 371.196,149.494 C374.850,145.801 377.735,141.513 379.852,136.627 C381.967,131.742 383.25,126.529 383.25,120.989 C383.25,115.450 381.967,110.239 379.852,105.352 ZM194.804,185.615 C176.954,185.615 161.721,179.307 149.104,166.689 C136.486,154.72 130.178,138.839 130.178,120.989 C130.178,103.142 136.486,87.909 149.104,75.290 C161.721,62.673 176.954,56.364 194.804,56.364 C212.498,56.364 227.731,62.673 240.503,75.290 C246.811,81.599 251.524,88.561 254.640,96.178 C257.756,103.795 259.352,112.66 259.429,120.989 C259.429,138.992 253.120,154.225 240.503,166.689 C227.731,179.307 212.498,185.615 194.804,185.615 ZM232.136,105.352 C230.19,100.468 227.134,96.178 223.481,92.485 C219.826,88.792 215.537,85.869 210.614,83.714 C205.689,81.561 200.419,80.483 194.804,80.483 C189.109,80.483 183.801,81.561 178.878,83.714 C173.954,85.869 169.684,88.774 166.69,92.427 C162.451,96.82 159.586,100.372 157.471,105.295 C155.354,110.219 154.297,115.450 154.297,120.989 C154.297,126.529 155.354,131.762 157.471,136.684 C159.586,141.609 162.451,145.898 166.69,149.552 C169.684,153.207 173.954,156.111 178.878,158.264 C183.801,160.419 189.109,161.496 194.804,161.496 C200.419,161.496 205.689,160.419 210.614,158.264 C215.537,156.111 219.826,153.187 223.481,149.494 C227.134,145.801 230.19,141.513 232.136,136.627 C234.252,131.742 235.310,126.529 235.310,120.989 C235.310,115.450 234.252,110.239 232.136,105.352 ZM99.597,93.293 C96.672,93.293 94.57,92.370 91.749,90.523 C87.826,87.216 83.709,84.715 79.401,83.22 C75.92,81.331 70.400,80.483 65.322,80.483 C59.705,80.483 54.435,81.542 49.512,83.657 C44.588,85.774 40.280,88.659 36.587,92.312 C32.894,95.967 29.989,100.257 27.874,105.179 C25.757,110.104 24.700,115.374 24.700,120.989 C24.700,126.606 25.757,131.877 27.874,136.800 C29.989,141.724 32.894,146.14 36.587,149.667 C40.280,153.322 44.588,156.207 49.512,158.322 C54.435,160.439 59.705,161.496 65.322,161.496 C70.400,161.496 75.92,160.670 79.401,159.15 C83.709,157.361 87.786,154.880 91.634,151.571 C93.787,149.955 96.326,149.110 99.250,149.32 C102.713,149.32 105.578,150.168 107.848,152.437 C110.116,154.707 111.252,157.572 111.252,161.34 C111.252,164.420 109.983,167.381 107.444,169.920 C95.518,180.384 81.479,185.615 65.322,185.615 C47.473,185.615 32.240,179.307 19.623,166.689 C7.4,154.72 0.697,138.839 0.697,120.989 C0.697,103.142 7.4,87.909 19.623,75.290 C32.240,62.673 47.473,56.364 65.322,56.364 C81.554,56.364 95.595,61.597 107.444,72.59 C110.214,74.522 111.599,77.560 111.599,81.176 C111.599,84.638 110.463,87.523 108.194,89.831 C105.924,92.139 103.59,93.293 99.597,93.293 Z">
    </path>
</svg>